<svg width="32" height="32" viewBox="0 0 32 32" fill="none" xmlns="http://www.w3.org/2000/svg">
<rect y="-4.19617e-05" width="32" height="32" rx="16" fill="#2F9DDE"/>
<g clip-path="url(#clip0_41_749)">
<path d="M13.1008 17.8555L12.8858 21.1129C13.1935 21.1129 13.3267 20.9705 13.4865 20.7996L14.929 19.315L17.9179 21.6723C18.4661 22.0013 18.8523 21.828 19.0001 21.1292L20.9621 11.2289L20.9626 11.2283C21.1365 10.3556 20.6696 10.0144 20.1355 10.2285L8.60339 14.9832C7.81635 15.3122 7.82827 15.7847 8.4696 15.9988L11.4179 16.9864L18.2662 12.3716C18.5885 12.1418 18.8815 12.269 18.6405 12.4988L13.1008 17.8555Z" fill="white"/>
</g>
<defs>
<clipPath id="clip0_41_749">
<rect width="13" height="14" fill="white" transform="translate(8 8.99995)"/>
</clipPath>
</defs>
</svg>
